# xmcd
#
# Track frame offsets: 
#        150
#        6399
#        19554
#        44066
#        58295
#        76273
#        87866
#        101901
#        113690
#        135358
#        151498
#        172486
#        188639
#        205128
#        222459
#        240977
#
# Disc length: 3465 seconds
#
# Revision: 2
# Processed by: cddbd v1.5.2PL0 Copyright (c) Steve Scherf et al.
# Submitted via: ExactAudioCopyFreeDBPlugin 1.0
#
DISCID=dc0d8710
DTITLE=Koslowski - Live und direkt
DYEAR=2003
DGENRE=Blues
TTITLE0=Ansage
TTITLE1=Autokino
TTITLE2=Mein Revier
TTITLE3=Moni, Moni!
TTITLE4=Blockwart Blues
TTITLE5=Ab dafür!
TTITLE6=Ich hab sie alle gehabt
TTITLE7=Wir geh'n zu mir oder zu dir
TTITLE8=Silikon-Baby
TTITLE9=Spießer
TTITLE10=Die Spinne
TTITLE11=Outlaw
TTITLE12=Der dicke Junge
TTITLE13=weil's nicht anders sein kann!
TTITLE14=Fastfood
TTITLE15=Mama, Mama!
EXTD=YEAR: 2003
EXTT0=
EXTT1=
EXTT2=
EXTT3=
EXTT4=
EXTT5=
EXTT6=
EXTT7=
EXTT8=
EXTT9=
EXTT10=
EXTT11=
EXTT12=
EXTT13=
EXTT14=
EXTT15=
PLAYORDER=
